<mxfile host="Electron" agent="Mozilla/5.0 (X11; Linux x86_64) AppleWebKit/537.36 (KHTML, like Gecko) draw.io/24.7.17 Chrome/128.0.6613.36 Electron/32.0.1 Safari/537.36" version="24.7.17">
  <diagram name="Page-1" id="oOKYxi_HPqzyIUOaTmJF">
    <mxGraphModel dx="1434" dy="836" grid="1" gridSize="10" guides="1" tooltips="1" connect="1" arrows="1" fold="1" page="1" pageScale="1" pageWidth="827" pageHeight="1169" math="0" shadow="0">
      <root>
        <mxCell id="0" />
        <mxCell id="1" parent="0" />
        <mxCell id="8OUVOt5Q5uxUBFzPzsfA-3" value="" style="edgeStyle=orthogonalEdgeStyle;rounded=0;orthogonalLoop=1;jettySize=auto;html=1;" edge="1" parent="1" source="8OUVOt5Q5uxUBFzPzsfA-1" target="8OUVOt5Q5uxUBFzPzsfA-2">
          <mxGeometry relative="1" as="geometry" />
        </mxCell>
        <mxCell id="8OUVOt5Q5uxUBFzPzsfA-1" value="Lancement de l&#39;application" style="rounded=1;whiteSpace=wrap;html=1;" vertex="1" parent="1">
          <mxGeometry x="370" y="20" width="120" height="60" as="geometry" />
        </mxCell>
        <mxCell id="8OUVOt5Q5uxUBFzPzsfA-5" value="" style="edgeStyle=orthogonalEdgeStyle;rounded=0;orthogonalLoop=1;jettySize=auto;html=1;" edge="1" parent="1" source="8OUVOt5Q5uxUBFzPzsfA-2" target="8OUVOt5Q5uxUBFzPzsfA-4">
          <mxGeometry relative="1" as="geometry" />
        </mxCell>
        <mxCell id="8OUVOt5Q5uxUBFzPzsfA-2" value="creation du resume avec les infos" style="whiteSpace=wrap;html=1;rounded=1;" vertex="1" parent="1">
          <mxGeometry x="370" y="120" width="120" height="60" as="geometry" />
        </mxCell>
        <mxCell id="8OUVOt5Q5uxUBFzPzsfA-7" value="" style="edgeStyle=orthogonalEdgeStyle;rounded=0;orthogonalLoop=1;jettySize=auto;html=1;" edge="1" parent="1" source="8OUVOt5Q5uxUBFzPzsfA-4" target="8OUVOt5Q5uxUBFzPzsfA-6">
          <mxGeometry relative="1" as="geometry" />
        </mxCell>
        <mxCell id="8OUVOt5Q5uxUBFzPzsfA-4" value="creation des jobs" style="whiteSpace=wrap;html=1;rounded=1;" vertex="1" parent="1">
          <mxGeometry x="370" y="220" width="120" height="60" as="geometry" />
        </mxCell>
        <mxCell id="8OUVOt5Q5uxUBFzPzsfA-9" value="" style="edgeStyle=orthogonalEdgeStyle;rounded=0;orthogonalLoop=1;jettySize=auto;html=1;" edge="1" parent="1" source="8OUVOt5Q5uxUBFzPzsfA-6" target="8OUVOt5Q5uxUBFzPzsfA-8">
          <mxGeometry relative="1" as="geometry" />
        </mxCell>
        <mxCell id="8OUVOt5Q5uxUBFzPzsfA-13" value="" style="edgeStyle=orthogonalEdgeStyle;rounded=0;orthogonalLoop=1;jettySize=auto;html=1;" edge="1" parent="1" source="8OUVOt5Q5uxUBFzPzsfA-6" target="8OUVOt5Q5uxUBFzPzsfA-12">
          <mxGeometry relative="1" as="geometry" />
        </mxCell>
        <mxCell id="8OUVOt5Q5uxUBFzPzsfA-6" value="jobs &amp;lt; 1" style="rhombus;whiteSpace=wrap;html=1;rounded=1;" vertex="1" parent="1">
          <mxGeometry x="365" y="315" width="130" height="90" as="geometry" />
        </mxCell>
        <mxCell id="8OUVOt5Q5uxUBFzPzsfA-8" value="Retour d&#39;erreur pour créer obligatoirement au moins un element" style="whiteSpace=wrap;html=1;rounded=1;" vertex="1" parent="1">
          <mxGeometry x="200" y="330" width="120" height="60" as="geometry" />
        </mxCell>
        <mxCell id="8OUVOt5Q5uxUBFzPzsfA-11" style="edgeStyle=orthogonalEdgeStyle;rounded=0;orthogonalLoop=1;jettySize=auto;html=1;entryX=-0.008;entryY=0.617;entryDx=0;entryDy=0;entryPerimeter=0;" edge="1" parent="1" source="8OUVOt5Q5uxUBFzPzsfA-8" target="8OUVOt5Q5uxUBFzPzsfA-4">
          <mxGeometry relative="1" as="geometry">
            <Array as="points">
              <mxPoint x="260" y="250" />
              <mxPoint x="369" y="250" />
            </Array>
          </mxGeometry>
        </mxCell>
        <mxCell id="8OUVOt5Q5uxUBFzPzsfA-15" value="" style="edgeStyle=orthogonalEdgeStyle;rounded=0;orthogonalLoop=1;jettySize=auto;html=1;" edge="1" parent="1" source="8OUVOt5Q5uxUBFzPzsfA-12" target="8OUVOt5Q5uxUBFzPzsfA-14">
          <mxGeometry relative="1" as="geometry" />
        </mxCell>
        <mxCell id="8OUVOt5Q5uxUBFzPzsfA-12" value="creation des educations" style="whiteSpace=wrap;html=1;rounded=1;" vertex="1" parent="1">
          <mxGeometry x="370" y="450" width="120" height="60" as="geometry" />
        </mxCell>
        <mxCell id="8OUVOt5Q5uxUBFzPzsfA-17" value="" style="edgeStyle=orthogonalEdgeStyle;rounded=0;orthogonalLoop=1;jettySize=auto;html=1;" edge="1" parent="1" source="8OUVOt5Q5uxUBFzPzsfA-14" target="8OUVOt5Q5uxUBFzPzsfA-16">
          <mxGeometry relative="1" as="geometry" />
        </mxCell>
        <mxCell id="8OUVOt5Q5uxUBFzPzsfA-21" value="" style="edgeStyle=orthogonalEdgeStyle;rounded=0;orthogonalLoop=1;jettySize=auto;html=1;" edge="1" parent="1" source="8OUVOt5Q5uxUBFzPzsfA-14" target="8OUVOt5Q5uxUBFzPzsfA-20">
          <mxGeometry relative="1" as="geometry" />
        </mxCell>
        <mxCell id="8OUVOt5Q5uxUBFzPzsfA-14" value="education &amp;lt; 1" style="rhombus;whiteSpace=wrap;html=1;rounded=1;" vertex="1" parent="1">
          <mxGeometry x="370" y="550" width="120" height="90" as="geometry" />
        </mxCell>
        <mxCell id="8OUVOt5Q5uxUBFzPzsfA-19" style="edgeStyle=orthogonalEdgeStyle;rounded=0;orthogonalLoop=1;jettySize=auto;html=1;entryX=0;entryY=0.5;entryDx=0;entryDy=0;" edge="1" parent="1" source="8OUVOt5Q5uxUBFzPzsfA-16" target="8OUVOt5Q5uxUBFzPzsfA-12">
          <mxGeometry relative="1" as="geometry">
            <Array as="points">
              <mxPoint x="260" y="480" />
            </Array>
          </mxGeometry>
        </mxCell>
        <mxCell id="8OUVOt5Q5uxUBFzPzsfA-16" value="Retour d&#39;erreur, creation obligatoire d&#39;au moins un element" style="whiteSpace=wrap;html=1;rounded=1;" vertex="1" parent="1">
          <mxGeometry x="200" y="565" width="120" height="60" as="geometry" />
        </mxCell>
        <mxCell id="8OUVOt5Q5uxUBFzPzsfA-23" value="" style="edgeStyle=orthogonalEdgeStyle;rounded=0;orthogonalLoop=1;jettySize=auto;html=1;" edge="1" parent="1" source="8OUVOt5Q5uxUBFzPzsfA-20" target="8OUVOt5Q5uxUBFzPzsfA-22">
          <mxGeometry relative="1" as="geometry" />
        </mxCell>
        <mxCell id="8OUVOt5Q5uxUBFzPzsfA-20" value="Creations des skills" style="whiteSpace=wrap;html=1;rounded=1;" vertex="1" parent="1">
          <mxGeometry x="370" y="680" width="120" height="60" as="geometry" />
        </mxCell>
        <mxCell id="8OUVOt5Q5uxUBFzPzsfA-25" value="" style="edgeStyle=orthogonalEdgeStyle;rounded=0;orthogonalLoop=1;jettySize=auto;html=1;" edge="1" parent="1" source="8OUVOt5Q5uxUBFzPzsfA-22" target="8OUVOt5Q5uxUBFzPzsfA-24">
          <mxGeometry relative="1" as="geometry" />
        </mxCell>
        <mxCell id="8OUVOt5Q5uxUBFzPzsfA-28" value="" style="edgeStyle=orthogonalEdgeStyle;rounded=0;orthogonalLoop=1;jettySize=auto;html=1;" edge="1" parent="1" source="8OUVOt5Q5uxUBFzPzsfA-22" target="8OUVOt5Q5uxUBFzPzsfA-27">
          <mxGeometry relative="1" as="geometry" />
        </mxCell>
        <mxCell id="8OUVOt5Q5uxUBFzPzsfA-22" value="skill &amp;lt; 1" style="rhombus;whiteSpace=wrap;html=1;rounded=1;" vertex="1" parent="1">
          <mxGeometry x="375" y="780" width="110" height="90" as="geometry" />
        </mxCell>
        <mxCell id="8OUVOt5Q5uxUBFzPzsfA-26" style="edgeStyle=orthogonalEdgeStyle;rounded=0;orthogonalLoop=1;jettySize=auto;html=1;entryX=0;entryY=0.5;entryDx=0;entryDy=0;" edge="1" parent="1" source="8OUVOt5Q5uxUBFzPzsfA-24" target="8OUVOt5Q5uxUBFzPzsfA-20">
          <mxGeometry relative="1" as="geometry">
            <Array as="points">
              <mxPoint x="260" y="710" />
            </Array>
          </mxGeometry>
        </mxCell>
        <mxCell id="8OUVOt5Q5uxUBFzPzsfA-24" value="Retour d&#39;erreu, création obligatoire d&#39;au moins un element" style="whiteSpace=wrap;html=1;rounded=1;" vertex="1" parent="1">
          <mxGeometry x="200" y="795" width="120" height="60" as="geometry" />
        </mxCell>
        <mxCell id="8OUVOt5Q5uxUBFzPzsfA-30" value="" style="edgeStyle=orthogonalEdgeStyle;rounded=0;orthogonalLoop=1;jettySize=auto;html=1;" edge="1" parent="1" source="8OUVOt5Q5uxUBFzPzsfA-27" target="8OUVOt5Q5uxUBFzPzsfA-29">
          <mxGeometry relative="1" as="geometry" />
        </mxCell>
        <mxCell id="8OUVOt5Q5uxUBFzPzsfA-27" value="creation des hobby" style="whiteSpace=wrap;html=1;rounded=1;" vertex="1" parent="1">
          <mxGeometry x="370" y="900" width="120" height="60" as="geometry" />
        </mxCell>
        <mxCell id="8OUVOt5Q5uxUBFzPzsfA-32" value="" style="edgeStyle=orthogonalEdgeStyle;rounded=0;orthogonalLoop=1;jettySize=auto;html=1;" edge="1" parent="1" source="8OUVOt5Q5uxUBFzPzsfA-29" target="8OUVOt5Q5uxUBFzPzsfA-31">
          <mxGeometry relative="1" as="geometry" />
        </mxCell>
        <mxCell id="8OUVOt5Q5uxUBFzPzsfA-29" value="Preview cv" style="whiteSpace=wrap;html=1;rounded=1;" vertex="1" parent="1">
          <mxGeometry x="370" y="990" width="120" height="60" as="geometry" />
        </mxCell>
        <mxCell id="8OUVOt5Q5uxUBFzPzsfA-33" style="edgeStyle=orthogonalEdgeStyle;rounded=0;orthogonalLoop=1;jettySize=auto;html=1;entryX=0;entryY=0.5;entryDx=0;entryDy=0;" edge="1" parent="1" source="8OUVOt5Q5uxUBFzPzsfA-31" target="8OUVOt5Q5uxUBFzPzsfA-1">
          <mxGeometry relative="1" as="geometry">
            <Array as="points">
              <mxPoint x="40" y="1110" />
              <mxPoint x="40" y="50" />
            </Array>
          </mxGeometry>
        </mxCell>
        <mxCell id="8OUVOt5Q5uxUBFzPzsfA-31" value="Publish" style="whiteSpace=wrap;html=1;rounded=1;" vertex="1" parent="1">
          <mxGeometry x="370" y="1080" width="120" height="60" as="geometry" />
        </mxCell>
      </root>
    </mxGraphModel>
  </diagram>
</mxfile>
